<?xml version="1.0" encoding="utf-8"?>
<!-- Generator: Adobe Illustrator 24.2.1, SVG Export Plug-In . SVG Version: 6.00 Build 0)  -->
<svg version="1.1" id="Artwork" xmlns="http://www.w3.org/2000/svg" xmlns:xlink="http://www.w3.org/1999/xlink" x="0px" y="0px"
	 width="361px" height="361px" viewBox="0 0 361 361" style="enable-background:new 0 0 361 361;" xml:space="preserve">
<style type="text/css">
	.st0{fill-rule:evenodd;clip-rule:evenodd;fill:url(#Gradient_Fill_1_1_);}
	.st1{fill:#FFFFFF;}
</style>
<g>
	
		<linearGradient id="Gradient_Fill_1_1_" gradientUnits="userSpaceOnUse" x1="180" y1="1473.9786" x2="180" y2="1833.9786" gradientTransform="matrix(1 0 0 -1 0 1833.9786)">
		<stop  offset="0" style="stop-color:#FF2D50"/>
		<stop  offset="1" style="stop-color:#FF7355"/>
	</linearGradient>
	<path id="Gradient_Fill_1_2_" class="st0" d="M360,112.613c0-4.3,0.004-8.599-0.025-12.899c-0.021-3.621-0.063-7.242-0.162-10.863
		c-0.214-7.887-0.678-15.843-2.078-23.642c-1.339-7.822-3.836-15.4-7.41-22.486c-7.249-14.231-18.82-25.801-33.051-33.049
		c-7.082-3.572-14.656-6.068-22.474-7.406c-7.802-1.402-15.761-1.868-23.651-2.081c-3.621-0.098-7.242-0.141-10.863-0.162
		c-4.3-0.026-8.6-0.024-12.9-0.024H112.612c-4.3,0-8.599-0.002-12.899,0.024c-3.621,0.022-7.242,0.064-10.863,0.162
		C80.961,0.399,73.002,0.864,65.2,2.267c-7.818,1.338-15.392,3.834-22.474,7.406C28.494,16.921,16.924,28.491,9.674,42.722
		C6.1,49.807,3.603,57.386,2.265,65.208C0.864,73.007,0.399,80.965,0.186,88.85c-0.098,3.621-0.141,7.242-0.162,10.863
		c-0.026,4.3-0.024,8.6-0.024,12.899v134.775c0,4.3-0.002,8.599,0.024,12.899c0.022,3.621,0.064,7.242,0.162,10.863
		c0.213,7.887,0.678,15.843,2.079,23.642c1.338,7.822,3.835,15.401,7.409,22.486c7.249,14.231,18.82,25.801,33.051,33.049
		c7.081,3.573,14.656,6.069,22.474,7.405c7.802,1.403,15.761,1.867,23.651,2.081c3.621,0.098,7.242,0.141,10.863,0.162
		c4.3,0.028,8.599,0.025,12.899,0.025h134.775c4.3,0,8.599,0.004,12.899-0.025c3.621-0.021,7.242-0.063,10.863-0.162
		c7.89-0.214,15.848-0.679,23.651-2.081c7.818-1.336,15.393-3.832,22.474-7.405c14.231-7.249,25.802-18.818,33.051-33.049
		c3.573-7.086,6.071-14.664,7.41-22.486c1.399-7.799,1.863-15.755,2.078-23.642c0.098-3.621,0.141-7.242,0.162-10.863
		c0.028-4.3,0.025-8.599,0.025-12.899L360,112.613L360,112.613z"/>
	<path class="st1" d="M280.641,246.808c-6.945,3.306-49.694,22.505-63.599,28.828c-13.905,6.323-23.353,8.836-36.989,8.836
		s-24.022-3.053-32.94-7.038c-7.397-3.305-60.859-27.369-67.75-30.611c-8.685-4.085-11.812-6.792-13.679-9.312
		c-1.157-1.561-1.906-3.657-1.906-5.548V222.7c0,0,0-5.516,5.421-3.025c0,0,69.015,31.17,77.846,35.131
		c9.278,4.162,20.137,7.053,32.905,7.053s22.218-2.3,33.008-7.053c10.789-4.753,77.846-35.131,77.846-35.131
		c5.421-2.491,5.421,3.025,5.421,3.025v9.263l-0.002-0.001c-0.004,1.884-0.686,3.931-1.903,5.518
		C292.007,240.494,289.365,242.655,280.641,246.808z M296.226,194.469c0,7.493-9.791,12.113-15.584,14.86l-67.682,30.696
		c-10.79,4.753-20.239,7.053-33.009,7.053c-12.768,0-23.627-2.892-32.905-7.053l-67.682-30.696
		c-5.793-2.747-15.584-7.368-15.584-14.86c0-7.524,9.964-12.243,15.584-14.875l67.682-30.553c6.304-2.827,13.406-4.981,21.273-6.127
		v53.43c0,5.099,5.238,8.473,11.699,8.473s11.699-3.317,11.699-8.473v-53.566c7.404,1.031,14.034,3.087,21.244,6.263l67.682,30.553
		C286.261,182.226,296.226,186.945,296.226,194.469z M120.9,187.606c-6.592-3.805-17.247-3.805-23.793,0
		c-6.548,3.805-6.498,9.967,0.094,13.772c6.589,3.805,17.21,3.805,23.759,0C127.509,197.573,127.49,191.411,120.9,187.606z
		 M147.545,101.923c0-17.926,14.532-32.457,32.457-32.457s32.457,14.531,32.457,32.457s-14.532,32.457-32.457,32.457
		S147.545,119.849,147.545,101.923z"/>
</g>
</svg>
